<svg xmlns="http://www.w3.org/2000/svg" id="Layer_1" data-name="Layer 1" viewBox="0 0 5814.12 1342.48">
  <defs>
    <style>
      .cls-1 {
        fill: none;
      }

      .cls-2 {
        stroke: #FFFFFF;
        stroke-miterlimit: 10;
        stroke-width: .25px;
      }

      .cls-2, .cls-3 {
        fill: #FFFFFF;
      }

      .cls-4 {
        clip-path: url(#clippath-10);
      }

      .cls-5 {
        clip-path: url(#clippath-1);
      }

      .cls-6 {
        clip-path: url(#clippath-3);
      }

      .cls-7 {
        clip-path: url(#clippath-4);
      }

      .cls-8 {
        clip-path: url(#clippath-2);
      }

      .cls-9 {
        clip-path: url(#clippath-7);
      }

      .cls-10 {
        clip-path: url(#clippath-6);
      }

      .cls-11 {
        clip-path: url(#clippath-9);
      }

      .cls-12 {
        clip-path: url(#clippath-8);
      }

      .cls-13 {
        clip-path: url(#clippath-5);
      }

      .cls-14 {
        clip-path: url(#clippath);
      }
    </style>
    <clipPath id="clippath">
      <rect class="cls-1" x="5" y="257.37" width="1920" height="1080" />
    </clipPath>
    <clipPath id="clippath-1">
      <rect class="cls-1" y="252.37" width="1930" height="1090" />
    </clipPath>
    <clipPath id="clippath-2">
      <rect class="cls-1" y="252.37" width="1930" height="1090" />
    </clipPath>
    <clipPath id="clippath-3">
      <rect class="cls-1" x="3882.34" y="257.25" width="1925.33" height="1080.23" />
    </clipPath>
    <clipPath id="clippath-4">
      <rect class="cls-1" x="3880.22" y="5" width="1928.9" height="1332.49" />
    </clipPath>
    <clipPath id="clippath-5">
      <rect class="cls-1" x="3875.22" y="0" width="1938.9" height="1342.48" />
    </clipPath>
    <clipPath id="clippath-6">
      <rect class="cls-1" x="3875.22" y="0" width="1938.9" height="1342.48" />
    </clipPath>
    <clipPath id="clippath-7">
      <rect class="cls-1" x="1942.34" y="257.25" width="1925.33" height="1080.23" />
    </clipPath>
    <clipPath id="clippath-8">
      <rect class="cls-1" x="1940.22" y="5" width="1928.9" height="1332.49" />
    </clipPath>
    <clipPath id="clippath-9">
      <rect class="cls-1" x="1935.22" y="0" width="1938.9" height="1342.48" />
    </clipPath>
    <clipPath id="clippath-10">
      <rect class="cls-1" x="1935.22" y="0" width="1938.9" height="1342.48" />
    </clipPath>
  </defs>
  <g class="cls-14">
    <g class="cls-5">
      <g class="cls-8">
        </g>
    </g>
  </g>
  <g>
    <path class="cls-3" d="M827.51,802.43h315.84c4.69,0,8.49,3.8,8.49,8.49h0c0,55.59-45.06,100.65-100.65,100.65h-290.6c-11.66,0-21.11-9.45-21.11-21.11h0c0-48.62,39.41-88.03,88.03-88.03Z" fill="#FFFFFF" stroke="none" />
    <path class="cls-3" d="M1137.82,792.31h-304.68c-5.23,0-9.47-4.24-9.47-9.47h0c0-62.01,50.27-112.29,112.29-112.29h276.52c13.01,0,23.55,10.55,23.55,23.55h0c0,54.24-43.97,98.21-98.21,98.21Z" fill="#FFFFFF" stroke="none" />
  </g>
  <g>
    <g class="cls-6">
      <g class="cls-7">
        <g class="cls-13">
          <g class="cls-10">
            </g>
        </g>
      </g>
    </g>
    <g>
      <path class="cls-3" d="M4204.86,802.54h315.84c4.69,0,8.49,3.8,8.49,8.49h0c0,55.59-45.06,100.65-100.65,100.65h-290.6c-11.66,0-21.11-9.45-21.11-21.11h0c0-48.62,39.41-88.03,88.03-88.03Z" fill="#FFFFFF" stroke="none" />
      <path class="cls-3" d="M4515.17,792.43h-304.68c-5.23,0-9.47-4.24-9.47-9.47h0c0-62.01,50.27-112.29,112.29-112.29h276.52c13.01,0,23.55,10.55,23.55,23.55h0c0,54.24-43.97,98.21-98.21,98.21Z" fill="#FFFFFF" stroke="none" />
    </g>
    <g>
      <g>
        <path class="cls-3" d="M5003.49,758.18h-63.52c-.81,0-1.46-.65-1.46-1.46v-13.2c0-.81.65-1.46,1.46-1.46h63.52c.81,0,1.46.65,1.46,1.46v13.2c0,.81-.65,1.46-1.46,1.46ZM5004.95,829.61c0,.81-.65,1.46-1.46,1.46h-18.96c-9.55,0-17.1-2.33-22.65-6.98-5.55-4.66-8.33-12.36-8.33-23.1v-76.98c0-.81.65-1.46,1.46-1.46h16.24c.81,0,1.46.65,1.46,1.46v75.9c0,5.49,1.31,9.16,3.94,11.01,2.62,1.85,6.69,2.78,12.18,2.78h14.66c.81,0,1.46.65,1.46,1.46v14.45Z" fill="#FFFFFF" stroke="none" />
        <path class="cls-3" d="M5041.04,831.07h-16.42c-.81,0-1.46-.65-1.46-1.46v-86.08c0-.81.65-1.46,1.46-1.46h14.81c.81,0,1.46.65,1.46,1.46v23.04c0,.46.25.89.65,1.11l.31.17c.4.22.65.65.65,1.11v60.65c0,.81-.65,1.46-1.46,1.46ZM5041.06,781.1h-1.4c-.81,0-1.46-.65-1.46-1.46v-12.12c0-.81.65-1.46,1.46-1.46h1.27c.7,0,1.29-.5,1.43-1.19.89-4.42,2.49-8.41,4.79-11.97,2.51-3.88,5.88-6.95,10.12-9.22,4.24-2.27,9.4-3.4,15.49-3.4,6.81,0,12.36,1.43,16.66,4.3,4.3,2.87,7.43,6.69,9.4,11.46,1.97,4.78,2.96,9.97,2.96,15.58v10.18c0,.81-.65,1.46-1.46,1.46h-16.24c-.81,0-1.46-.65-1.46-1.46v-6.42c0-6.45-1.43-11.16-4.3-14.15-2.87-2.98-7.64-4.48-14.33-4.48-7.64,0-13.13,2.09-16.48,6.27-3.14,3.92-4.8,9.47-5,16.65-.02.8-.66,1.44-1.46,1.44Z" fill="#FFFFFF" stroke="none" />
        <path class="cls-3" d="M5142.04,831.07c-9.2,0-16.51-2.06-21.94-6.18-5.43-4.12-8.15-9.82-8.15-17.1,0-4.66,1.16-8.56,3.49-11.73,2.33-3.16,5.64-5.64,9.94-7.43,4.3-1.79,9.37-3.04,15.22-3.76l40.65-4.31c.86-.09,1.61.59,1.61,1.45v8.53c0,.74-.56,1.37-1.3,1.45l-35.42,3.97c-5.01.6-8.75,1.64-11.19,3.13-2.45,1.49-3.67,3.97-3.67,7.43s1.28,6.24,3.85,7.97c2.57,1.73,6.6,2.6,12.09,2.6,6.8,0,12.71-.87,17.73-2.6,5.01-1.73,8.95-4.45,11.82-8.15,2.63-3.39,4.05-7.69,4.27-12.89.03-.76.69-1.34,1.45-1.23h0c.62.09,1.09.62,1.09,1.26v12.12c0,.81-.65,1.46-1.46,1.46h0c-.63,0-1.17.4-1.38.99-2.47,7.05-6.93,12.6-13.37,16.65-6.75,4.24-15.19,6.36-25.34,6.36ZM5198.61,829.28h-14.81c-.81,0-1.46-.65-1.46-1.46v-20.78c0-.41-.25-.79-.63-.95h0c-.38-.16-.63-.54-.63-.95v-29.76c0-7.4-1.76-12.56-5.28-15.49-3.52-2.92-9.58-4.39-18.18-4.39s-14.39,1.43-18.45,4.3c-4.06,2.87-6.09,7.58-6.09,14.15v.72h-19.16v-.72c0-6.81,1.79-12.86,5.37-18.18,3.58-5.31,8.74-9.52,15.49-12.63,6.74-3.1,14.83-4.66,24.27-4.66s17.16,1.58,23.19,4.75c6.03,3.17,10.5,7.49,13.43,12.98,2.92,5.49,4.39,11.82,4.39,18.98v52.62c0,.81-.65,1.46-1.46,1.46Z" fill="#FFFFFF" stroke="none" />
        <path class="cls-3" d="M5273.03,758.18h-63.52c-.81,0-1.46-.65-1.46-1.46v-13.2c0-.81.65-1.46,1.46-1.46h63.52c.81,0,1.46.65,1.46,1.46v13.2c0,.81-.65,1.46-1.46,1.46ZM5274.5,829.61c0,.81-.65,1.46-1.46,1.46h-18.96c-9.55,0-17.1-2.33-22.65-6.98-5.55-4.66-8.33-12.36-8.33-23.1v-76.98c0-.81.65-1.46,1.46-1.46h16.24c.81,0,1.46.65,1.46,1.46v75.9c0,5.49,1.31,9.16,3.94,11.01,2.62,1.85,6.69,2.78,12.18,2.78h14.66c.81,0,1.46.65,1.46,1.46v14.45Z" fill="#FFFFFF" stroke="none" />
        <path class="cls-3" d="M5336.29,831.07c-9.79,0-18.42-1.94-25.88-5.82-7.46-3.88-13.25-9.31-17.37-16.3-4.12-6.98-6.18-15.01-6.18-24.09s2.06-17.43,6.18-24.36c4.12-6.92,9.91-12.33,17.37-16.21,7.46-3.88,16.09-5.82,25.88-5.82s18.74,1.94,26.15,5.82c7.4,3.88,13.16,9.28,17.28,16.21,4.12,6.93,6.18,15.04,6.18,24.36s-2.06,17.1-6.18,24.09c-4.12,6.99-9.88,12.42-17.28,16.3-7.4,3.88-16.12,5.82-26.15,5.82ZM5336.29,813.87c10.86,0,18.68-2.48,23.46-7.43,4.77-4.95,7.16-12.15,7.16-21.58s-2.39-16.68-7.16-21.76c-4.78-5.07-12.6-7.61-23.46-7.61s-18.51,2.54-23.28,7.61c-4.78,5.08-7.16,12.33-7.16,21.76s2.39,16.63,7.16,21.58c4.77,4.96,12.54,7.43,23.28,7.43Z" fill="#FFFFFF" stroke="none" />
        <path class="cls-3" d="M4880.53,831.07c-12.13,0-22.33-1.88-30.6-5.65s-14.49-9.11-18.65-16.03c-4.17-6.92-6.25-15.09-6.25-24.5v-1.21h18.35c.83,0,1.5.74,1.5,1.64v1.58c0,5.38,1.1,9.85,3.31,13.41,2.2,3.56,5.88,6.25,11.03,8.07,5.15,1.81,12.25,2.72,21.32,2.72,7.84,0,14.09-.64,18.75-1.92,4.66-1.28,7.99-3.29,10.02-6.05,2.02-2.75,3.03-6.22,3.03-10.39,0-5.91-1.72-10.21-5.15-12.91-3.43-2.69-9.01-4.84-16.72-6.45l-30.14-5.44c-6.86-1.48-12.99-3.66-18.38-6.55-5.39-2.89-9.59-6.79-12.59-11.7-3-4.91-4.5-11.06-4.5-18.45,0-4.84.98-9.61,2.94-14.32,1.96-4.7,5.02-8.94,9.19-12.7,4.16-3.76,9.59-6.76,16.26-8.97,6.68-2.22,14.85-3.33,24.53-3.33,12.01,0,21.87,2.02,29.59,6.05,7.72,4.03,13.44,9.51,17.18,16.43,3.74,6.93,5.61,14.82,5.61,23.69v1.21h-18.17c-.83,0-1.5-.74-1.5-1.64v-.98c0-5.51-1.1-10.11-3.31-13.81-2.21-3.7-5.82-6.45-10.84-8.27-5.03-1.81-11.83-2.72-20.4-2.72-7.48,0-13.51.67-18.1,2.02-4.59,1.35-7.94,3.33-10.02,5.95-2.08,2.62-3.12,6.02-3.12,10.18,0,3.77.74,6.86,2.21,9.28,1.47,2.42,3.74,4.34,6.8,5.75,3.05,1.41,6.96,2.71,11.72,3.92.03,0,.06.01.09.02l29.91,5.64c8.21,1.61,15.04,4.03,20.49,7.26,5.45,3.23,9.53,7.33,12.22,12.3,2.69,4.98,4.04,10.76,4.04,17.34s-1.78,13.31-5.33,19.36c-3.56,6.05-9.13,10.92-16.72,14.62-7.6,3.7-17.46,5.55-29.59,5.55Z" fill="#FFFFFF" stroke="none" />
      </g>
      <g>
        <path class="cls-2" d="M4971.2,892.48h-1.74v-38.84h1.74v38.84ZM4985.29,892.48h-14.44v-1.62h14.44c3.67,0,6.73-.71,9.19-2.12,2.45-1.41,4.31-3.45,5.56-6.12,1.26-2.67,1.88-5.86,1.88-9.57s-.63-6.95-1.88-9.59-3.11-4.68-5.56-6.09c-2.46-1.41-5.52-2.12-9.19-2.12h-14.44v-1.62h14.44c3.79,0,7.05.8,9.8,2.41,2.74,1.6,4.87,3.86,6.38,6.75,1.51,2.9,2.26,6.32,2.26,10.26s-.75,7.36-2.26,10.26c-1.51,2.9-3.63,5.15-6.38,6.75-2.74,1.6-6.01,2.41-9.8,2.41Z" fill="#FFFFFF" stroke="none" />
        <path class="cls-2" d="M5012.88,860.02h-1.74v-6.38h1.74v6.38ZM5012.88,892.48h-1.74v-28.41h1.74v28.41Z" fill="#FFFFFF" stroke="none" />
        <path class="cls-2" d="M5034.1,890.45c-2.82,0-5.27-.59-7.33-1.77-2.07-1.18-3.66-2.78-4.78-4.81-1.12-2.03-1.68-4.32-1.68-6.87s.58-4.9,1.74-6.93,2.81-3.63,4.96-4.81c2.14-1.18,4.69-1.77,7.62-1.77s5.73.72,8.03,2.15,3.76,3.42,4.38,5.97h.99v4.35h-1.1c0-2.2-.52-4.12-1.56-5.74-1.04-1.62-2.48-2.88-4.32-3.77-1.84-.89-3.97-1.33-6.4-1.33-2.28,0-4.38.38-6.29,1.13-1.91.75-3.44,1.99-4.58,3.71-1.14,1.72-1.71,4.07-1.71,7.04s.56,5.27,1.68,7.01c1.12,1.74,2.6,2.98,4.43,3.71,1.84.74,3.86,1.1,6.06,1.1,3.9,0,6.99-1.06,9.28-3.19,2.28-2.12,3.42-4.96,3.42-8.52h1.1v5.51h-1.28c-.66,2.24-2.1,4.11-4.32,5.59-2.22,1.49-5,2.23-8.32,2.23ZM5035.03,902.92c-2.28,0-4.4-.41-6.35-1.22-1.95-.81-3.52-1.96-4.7-3.45s-1.77-3.27-1.77-5.36h1.74c0,1.97.46,3.57,1.39,4.81.93,1.24,2.22,2.14,3.88,2.72,1.66.58,3.59.87,5.8.87,2.78,0,5.05-.35,6.81-1.04,1.76-.7,3.04-1.83,3.86-3.39.81-1.57,1.22-3.66,1.22-6.29v-15.94l.29-.75v-9.8h1.45v26.49c0,3.01-.6,5.42-1.8,7.22-1.2,1.8-2.82,3.1-4.87,3.91-2.05.81-4.37,1.22-6.96,1.22Z" fill="#FFFFFF" stroke="none" />
        <path class="cls-2" d="M5059.55,860.02h-1.74v-6.38h1.74v6.38ZM5059.55,892.48h-1.74v-28.41h1.74v28.41Z" fill="#FFFFFF" stroke="none" />
        <path class="cls-2" d="M5084.77,865.7h-19.54v-1.62h19.54v1.62ZM5084.77,892.48h-5.68c-2.55,0-4.6-.6-6.14-1.8-1.55-1.2-2.32-3.4-2.32-6.61v-27.54h1.74v28.41c0,2.32.61,3.88,1.83,4.7,1.22.81,3,1.22,5.36,1.22h5.22v1.62Z" fill="#FFFFFF" stroke="none" />
        <path class="cls-2" d="M5098.45,893.06c-2.63,0-4.81-.62-6.55-1.86-1.74-1.24-2.61-2.98-2.61-5.22,0-1.62.42-2.92,1.28-3.88.85-.96,1.97-1.7,3.36-2.2,1.39-.5,2.9-.85,4.52-1.04l14.84-1.68v1.51l-14.14,1.57c-2.71.27-4.73.79-6.09,1.57s-2.03,2.12-2.03,4.06c0,1.78.6,3.15,1.8,4.12,1.2.97,3.13,1.45,5.8,1.45,2.47,0,4.77-.44,6.9-1.33,2.12-.89,3.85-2.22,5.19-4,1.33-1.78,2-4.02,2-6.72l.81.46v4.41h-.81c-.97,2.82-2.72,5-5.28,6.52-2.55,1.53-5.55,2.29-8.98,2.29ZM5114.33,892.48h-1.45v-8.29l-.17-.35v-9.39c0-3.25-.76-5.61-2.29-7.1-1.53-1.49-4.07-2.23-7.62-2.23s-6.24.71-8.17,2.12c-1.93,1.41-2.9,3.6-2.9,6.58v.29h-1.74v-.35c0-1.82.49-3.5,1.48-5.04.99-1.54,2.44-2.8,4.35-3.77,1.91-.96,4.26-1.45,7.04-1.45s4.96.49,6.64,1.48c1.68.99,2.91,2.28,3.68,3.88.77,1.6,1.16,3.35,1.16,5.25v18.38Z" fill="#FFFFFF" stroke="none" />
        <path class="cls-2" d="M5125.05,892.48h-1.74v-38.84h1.74v38.84Z" fill="#FFFFFF" stroke="none" />
        <path class="cls-2" d="M5148.59,892.48h-1.74v-38.84h1.74v38.84ZM5174.04,892.48h-26.49v-1.62h26.49v1.62Z" fill="#FFFFFF" stroke="none" />
        <path class="cls-2" d="M5187.72,893.06c-2.63,0-4.81-.62-6.55-1.86-1.74-1.24-2.61-2.98-2.61-5.22,0-1.62.43-2.92,1.28-3.88.85-.96,1.97-1.7,3.36-2.2s2.9-.85,4.52-1.04l14.84-1.68v1.51l-14.14,1.57c-2.71.27-4.73.79-6.09,1.57-1.35.77-2.03,2.12-2.03,4.06,0,1.78.6,3.15,1.8,4.12,1.2.97,3.13,1.45,5.8,1.45,2.47,0,4.77-.44,6.9-1.33,2.12-.89,3.86-2.22,5.19-4,1.33-1.78,2-4.02,2-6.72l.81.46v4.41h-.81c-.96,2.82-2.72,5-5.27,6.52-2.55,1.53-5.55,2.29-8.99,2.29ZM5203.6,892.48h-1.45v-8.29l-.17-.35v-9.39c0-3.25-.76-5.61-2.29-7.1-1.53-1.49-4.07-2.23-7.62-2.23s-6.24.71-8.17,2.12c-1.93,1.41-2.9,3.6-2.9,6.58v.29h-1.74v-.35c0-1.82.49-3.5,1.48-5.04.99-1.54,2.44-2.8,4.35-3.77,1.91-.96,4.26-1.45,7.04-1.45s4.96.49,6.64,1.48,2.91,2.28,3.68,3.88c.77,1.6,1.16,3.35,1.16,5.25v18.38Z" fill="#FFFFFF" stroke="none" />
        <path class="cls-2" d="M5214.04,892.48h-1.45v-38.84h1.74v28.29l-.29.75v9.8ZM5226.91,893.06c-3.13,0-5.84-.83-8.12-2.49-2.28-1.66-3.81-3.92-4.58-6.78h-.98v-4.93h1.1c0,2.55.52,4.77,1.56,6.67s2.51,3.35,4.41,4.38c1.89,1.02,4.1,1.54,6.61,1.54s4.71-.41,6.61-1.25c1.89-.83,3.37-2.2,4.44-4.12,1.06-1.91,1.59-4.51,1.59-7.8s-.54-5.88-1.62-7.8-2.56-3.28-4.44-4.12-4.01-1.25-6.4-1.25c-4.02,0-7.15,1.19-9.39,3.57s-3.36,5.58-3.36,9.59h-1.1v-6.09h1.28c.7-2.47,2.12-4.54,4.29-6.2,2.16-1.66,4.97-2.49,8.41-2.49,3.05,0,5.62.65,7.71,1.94,2.09,1.29,3.67,3.05,4.75,5.28,1.08,2.22,1.62,4.74,1.62,7.56s-.54,5.3-1.62,7.54c-1.08,2.24-2.69,4.01-4.81,5.3-2.13,1.29-4.77,1.94-7.94,1.94Z" fill="#FFFFFF" stroke="none" />
      </g>
    </g>
  </g>
  <g>
    <g class="cls-9">
      <g class="cls-12">
        <g class="cls-11">
          <g class="cls-4">
            </g>
        </g>
      </g>
    </g>
    <g>
      <g>
        <path class="cls-3" d="M2803.11,758.06h-63.52c-.81,0-1.46-.65-1.46-1.46v-13.2c0-.81.65-1.46,1.46-1.46h63.52c.81,0,1.46.65,1.46,1.46v13.2c0,.81-.65,1.46-1.46,1.46ZM2804.57,829.49c0,.81-.65,1.46-1.46,1.46h-18.96c-9.55,0-17.1-2.33-22.65-6.98s-8.33-12.36-8.33-23.1v-76.98c0-.81.65-1.46,1.46-1.46h16.24c.81,0,1.46.65,1.46,1.46v75.9c0,5.49,1.31,9.16,3.94,11.01,2.62,1.85,6.69,2.78,12.18,2.78h14.66c.81,0,1.46.65,1.46,1.46v14.45Z" fill="#FFFFFF" stroke="none" />
        <path class="cls-3" d="M2840.67,830.95h-16.42c-.81,0-1.46-.65-1.46-1.46v-86.08c0-.81.65-1.46,1.46-1.46h14.81c.81,0,1.46.65,1.46,1.46v23.04c0,.46.25.89.65,1.11l.31.17c.4.22.65.65.65,1.11v60.65c0,.81-.65,1.46-1.46,1.46ZM2840.69,780.99h-1.4c-.81,0-1.46-.65-1.46-1.46v-12.12c0-.81.65-1.46,1.46-1.46h1.27c.7,0,1.29-.5,1.43-1.19.89-4.42,2.49-8.41,4.79-11.97,2.51-3.88,5.88-6.95,10.12-9.22,4.24-2.27,9.4-3.4,15.49-3.4,6.81,0,12.36,1.43,16.66,4.3,4.3,2.87,7.43,6.69,9.4,11.46,1.97,4.78,2.96,9.97,2.96,15.58v10.18c0,.81-.65,1.46-1.46,1.46h-16.24c-.81,0-1.46-.65-1.46-1.46v-6.42c0-6.45-1.43-11.16-4.3-14.15-2.87-2.98-7.64-4.48-14.33-4.48-7.64,0-13.13,2.09-16.48,6.27-3.14,3.92-4.8,9.47-5,16.65-.02.8-.66,1.44-1.46,1.44Z" fill="#FFFFFF" stroke="none" />
        <path class="cls-3" d="M2941.67,833.79c-9.2,0-16.51-2.06-21.94-6.18-5.43-4.12-8.15-9.82-8.15-17.1,0-4.66,1.16-8.56,3.49-11.73,2.33-3.16,5.64-5.64,9.94-7.43,4.3-1.79,9.37-3.04,15.22-3.76l40.65-4.31c.86-.09,1.61.59,1.61,1.45v8.53c0,.74-.56,1.37-1.3,1.45l-35.42,3.97c-5.01.6-8.75,1.64-11.19,3.13-2.45,1.49-3.67,3.97-3.67,7.43s1.28,6.24,3.85,7.97c2.57,1.73,6.6,2.6,12.09,2.6,6.8,0,12.71-.87,17.73-2.6,5.01-1.73,8.95-4.45,11.82-8.15,2.63-3.39,4.05-7.69,4.27-12.89.03-.76.69-1.34,1.45-1.23h0c.62.09,1.09.62,1.09,1.26v12.12c0,.81-.65,1.46-1.46,1.46h0c-.63,0-1.17.4-1.38.99-2.47,7.05-6.93,12.6-13.37,16.65-6.75,4.24-15.19,6.36-25.34,6.36ZM2998.23,829.16h-14.81c-.81,0-1.46-.65-1.46-1.46v-20.78c0-.41-.25-.79-.63-.95h0c-.38-.16-.63-.54-.63-.95v-29.76c0-7.4-1.76-12.56-5.28-15.49-3.52-2.92-9.58-4.39-18.18-4.39s-14.39,1.43-18.45,4.3c-4.06,2.87-6.09,7.58-6.09,14.15v.72h-19.16v-.72c0-6.81,1.79-12.86,5.37-18.18,3.58-5.31,8.74-9.52,15.49-12.63,6.74-3.1,14.83-4.66,24.27-4.66s17.16,1.58,23.19,4.75c6.03,3.17,10.5,7.49,13.43,12.98,2.92,5.49,4.39,11.82,4.39,18.98v52.62c0,.81-.65,1.46-1.46,1.46ZM2932.72,783.4h-15.98c-1.76,0-3.19-1.43-3.19-3.19v-6.33h19.17v9.52Z" fill="#FFFFFF" stroke="none" />
        <path class="cls-3" d="M3072.66,758.06h-63.52c-.81,0-1.46-.65-1.46-1.46v-13.2c0-.81.65-1.46,1.46-1.46h63.52c.81,0,1.46.65,1.46,1.46v13.2c0,.81-.65,1.46-1.46,1.46ZM3074.12,829.49c0,.81-.65,1.46-1.46,1.46h-18.96c-9.55,0-17.1-2.33-22.65-6.98s-8.33-12.36-8.33-23.1v-76.98c0-.81.65-1.46,1.46-1.46h16.24c.81,0,1.46.65,1.46,1.46v75.9c0,5.49,1.31,9.16,3.94,11.01,2.62,1.85,6.69,2.78,12.18,2.78h14.66c.81,0,1.46.65,1.46,1.46v14.45Z" fill="#FFFFFF" stroke="none" />
        <path class="cls-3" d="M3135.92,830.95c-9.79,0-18.42-1.94-25.88-5.82-7.46-3.88-13.25-9.31-17.37-16.3-4.12-6.98-6.18-15.01-6.18-24.09s2.06-17.43,6.18-24.36c4.12-6.92,9.91-12.33,17.37-16.21,7.46-3.88,16.09-5.82,25.88-5.82s18.74,1.94,26.15,5.82c7.4,3.88,13.16,9.28,17.28,16.21,4.12,6.93,6.18,15.04,6.18,24.36s-2.06,17.1-6.18,24.09c-4.12,6.99-9.88,12.42-17.28,16.3-7.4,3.88-16.12,5.82-26.15,5.82ZM3135.92,813.76c10.86,0,18.68-2.48,23.46-7.43,4.77-4.95,7.16-12.15,7.16-21.58s-2.39-16.68-7.16-21.76c-4.78-5.07-12.6-7.61-23.46-7.61s-18.51,2.54-23.28,7.61c-4.78,5.08-7.16,12.33-7.16,21.76s2.39,16.63,7.16,21.58c4.77,4.96,12.54,7.43,23.28,7.43Z" fill="#FFFFFF" stroke="none" />
        <path class="cls-3" d="M2680.16,830.95c-12.13,0-22.33-1.88-30.6-5.65-8.27-3.76-14.49-9.11-18.65-16.03-4.17-6.92-6.25-15.09-6.25-24.5v-1.21h18.35c.83,0,1.5.74,1.5,1.64v1.58c0,5.38,1.1,9.85,3.31,13.41,2.2,3.56,5.88,6.25,11.03,8.07,5.15,1.81,12.25,2.72,21.32,2.72,7.84,0,14.09-.64,18.75-1.92,4.66-1.28,7.99-3.29,10.02-6.05,2.02-2.75,3.03-6.22,3.03-10.39,0-5.91-1.72-10.21-5.15-12.91-3.43-2.69-9.01-4.84-16.72-6.45l-30.14-5.44c-6.86-1.48-12.99-3.66-18.38-6.55-5.39-2.89-9.59-6.79-12.59-11.7-3-4.91-4.5-11.06-4.5-18.45,0-4.84.98-9.61,2.94-14.32,1.96-4.7,5.02-8.94,9.19-12.7,4.16-3.76,9.59-6.76,16.26-8.97,6.68-2.22,14.85-3.33,24.53-3.33,12.01,0,21.87,2.02,29.59,6.05,7.72,4.03,13.44,9.51,17.18,16.43,3.74,6.93,5.61,14.82,5.61,23.69v1.21h-18.17c-.83,0-1.5-.74-1.5-1.64v-.98c0-5.51-1.1-10.11-3.31-13.81-2.21-3.7-5.82-6.45-10.84-8.27-5.03-1.81-11.83-2.72-20.4-2.72-7.48,0-13.51.67-18.1,2.02-4.59,1.35-7.94,3.33-10.02,5.95-2.08,2.62-3.12,6.02-3.12,10.18,0,3.77.74,6.86,2.21,9.28,1.47,2.42,3.74,4.34,6.8,5.75,3.05,1.41,6.96,2.71,11.72,3.92.03,0,.06.01.09.02l29.91,5.64c8.21,1.61,15.04,4.03,20.49,7.26,5.45,3.23,9.53,7.33,12.22,12.3,2.69,4.98,4.04,10.76,4.04,17.34s-1.78,13.31-5.33,19.36c-3.56,6.05-9.13,10.92-16.72,14.62-7.6,3.7-17.46,5.55-29.59,5.55Z" fill="#FFFFFF" stroke="none" />
      </g>
      <g>
        <path class="cls-2" d="M2770.83,892.37h-1.74v-38.84h1.74v38.84ZM2784.92,892.37h-14.44v-1.62h14.44c3.67,0,6.73-.71,9.19-2.12,2.45-1.41,4.31-3.45,5.56-6.12,1.26-2.67,1.88-5.86,1.88-9.57s-.63-6.95-1.88-9.59-3.11-4.68-5.56-6.09c-2.46-1.41-5.52-2.12-9.19-2.12h-14.44v-1.62h14.44c3.79,0,7.05.8,9.8,2.41,2.74,1.6,4.87,3.86,6.38,6.75,1.51,2.9,2.26,6.32,2.26,10.26s-.75,7.36-2.26,10.26c-1.51,2.9-3.63,5.15-6.38,6.75-2.74,1.6-6.01,2.41-9.8,2.41Z" fill="#FFFFFF" stroke="none" />
        <path class="cls-2" d="M2812.51,859.91h-1.74v-6.38h1.74v6.38ZM2812.51,892.37h-1.74v-28.41h1.74v28.41Z" fill="#FFFFFF" stroke="none" />
        <path class="cls-2" d="M2833.73,890.34c-2.82,0-5.27-.59-7.33-1.77-2.07-1.18-3.66-2.78-4.78-4.81-1.12-2.03-1.68-4.32-1.68-6.87s.58-4.9,1.74-6.93,2.81-3.63,4.96-4.81c2.14-1.18,4.69-1.77,7.62-1.77s5.73.72,8.03,2.15,3.76,3.42,4.38,5.97h.99v4.35h-1.1c0-2.2-.52-4.12-1.56-5.74-1.04-1.62-2.48-2.88-4.32-3.77-1.84-.89-3.97-1.33-6.4-1.33-2.28,0-4.38.38-6.29,1.13-1.91.75-3.44,1.99-4.58,3.71-1.14,1.72-1.71,4.07-1.71,7.04s.56,5.27,1.68,7.01c1.12,1.74,2.6,2.98,4.43,3.71,1.84.74,3.86,1.1,6.06,1.1,3.9,0,6.99-1.06,9.28-3.19,2.28-2.12,3.42-4.96,3.42-8.52h1.1v5.51h-1.28c-.66,2.24-2.1,4.11-4.32,5.59-2.22,1.49-5,2.23-8.32,2.23ZM2834.65,902.8c-2.28,0-4.4-.41-6.35-1.22-1.95-.81-3.52-1.96-4.7-3.45s-1.77-3.27-1.77-5.36h1.74c0,1.97.46,3.57,1.39,4.81.93,1.24,2.22,2.14,3.88,2.72,1.66.58,3.59.87,5.8.87,2.78,0,5.05-.35,6.81-1.04,1.76-.7,3.04-1.83,3.86-3.39.81-1.57,1.22-3.66,1.22-6.29v-15.94l.29-.75v-9.8h1.45v26.49c0,3.01-.6,5.42-1.8,7.22-1.2,1.8-2.82,3.1-4.87,3.91-2.05.81-4.37,1.22-6.96,1.22Z" fill="#FFFFFF" stroke="none" />
        <path class="cls-2" d="M2859.18,859.91h-1.74v-6.38h1.74v6.38ZM2859.18,892.37h-1.74v-28.41h1.74v28.41Z" fill="#FFFFFF" stroke="none" />
        <path class="cls-2" d="M2884.39,865.59h-19.54v-1.62h19.54v1.62ZM2884.39,892.37h-5.68c-2.55,0-4.6-.6-6.14-1.8-1.55-1.2-2.32-3.4-2.32-6.61v-27.54h1.74v28.41c0,2.32.61,3.88,1.83,4.7,1.22.81,3,1.22,5.36,1.22h5.22v1.62Z" fill="#FFFFFF" stroke="none" />
        <path class="cls-2" d="M2898.07,892.95c-2.63,0-4.81-.62-6.55-1.86-1.74-1.24-2.61-2.98-2.61-5.22,0-1.62.42-2.92,1.28-3.88.85-.96,1.97-1.7,3.36-2.2,1.39-.5,2.9-.85,4.52-1.04l14.84-1.68v1.51l-14.14,1.57c-2.71.27-4.73.79-6.09,1.57s-2.03,2.12-2.03,4.06c0,1.78.6,3.15,1.8,4.12,1.2.97,3.13,1.45,5.8,1.45,2.47,0,4.77-.44,6.9-1.33,2.12-.89,3.85-2.22,5.19-4,1.33-1.78,2-4.02,2-6.72l.81.46v4.41h-.81c-.97,2.82-2.72,5-5.28,6.52-2.55,1.53-5.55,2.29-8.98,2.29ZM2913.96,892.37h-1.45v-8.29l-.17-.35v-9.39c0-3.25-.76-5.61-2.29-7.1-1.53-1.49-4.07-2.23-7.62-2.23s-6.24.71-8.17,2.12c-1.93,1.41-2.9,3.6-2.9,6.58v.29h-1.74v-.35c0-1.82.49-3.5,1.48-5.04.99-1.54,2.44-2.8,4.35-3.77,1.91-.96,4.26-1.45,7.04-1.45s4.96.49,6.64,1.48c1.68.99,2.91,2.28,3.68,3.88.77,1.6,1.16,3.35,1.16,5.25v18.38Z" fill="#FFFFFF" stroke="none" />
        <path class="cls-2" d="M2924.68,892.37h-1.74v-38.84h1.74v38.84Z" fill="#FFFFFF" stroke="none" />
        <path class="cls-2" d="M2948.22,892.37h-1.74v-38.84h1.74v38.84ZM2973.67,892.37h-26.49v-1.62h26.49v1.62Z" fill="#FFFFFF" stroke="none" />
        <path class="cls-2" d="M2987.35,892.95c-2.63,0-4.81-.62-6.55-1.86-1.74-1.24-2.61-2.98-2.61-5.22,0-1.62.43-2.92,1.28-3.88.85-.96,1.97-1.7,3.36-2.2s2.9-.85,4.52-1.04l14.84-1.68v1.51l-14.14,1.57c-2.71.27-4.73.79-6.09,1.57-1.35.77-2.03,2.12-2.03,4.06,0,1.78.6,3.15,1.8,4.12,1.2.97,3.13,1.45,5.8,1.45,2.47,0,4.77-.44,6.9-1.33,2.12-.89,3.86-2.22,5.19-4,1.33-1.78,2-4.02,2-6.72l.81.46v4.41h-.81c-.96,2.82-2.72,5-5.27,6.52-2.55,1.53-5.55,2.29-8.99,2.29ZM3003.23,892.37h-1.45v-8.29l-.17-.35v-9.39c0-3.25-.76-5.61-2.29-7.1-1.53-1.49-4.07-2.23-7.62-2.23s-6.24.71-8.17,2.12c-1.93,1.41-2.9,3.6-2.9,6.58v.29h-1.74v-.35c0-1.82.49-3.5,1.48-5.04.99-1.54,2.44-2.8,4.35-3.77,1.91-.96,4.26-1.45,7.04-1.45s4.96.49,6.64,1.48,2.91,2.28,3.68,3.88c.77,1.6,1.16,3.35,1.16,5.25v18.38Z" fill="#FFFFFF" stroke="none" />
        <path class="cls-2" d="M3013.66,892.37h-1.45v-38.84h1.74v28.29l-.29.75v9.8ZM3026.53,892.95c-3.13,0-5.84-.83-8.12-2.49-2.28-1.66-3.81-3.92-4.58-6.78h-.98v-4.93h1.1c0,2.55.52,4.77,1.56,6.67s2.51,3.35,4.41,4.38c1.89,1.02,4.1,1.54,6.61,1.54s4.71-.41,6.61-1.25c1.89-.83,3.37-2.2,4.44-4.12,1.06-1.91,1.59-4.51,1.59-7.8s-.54-5.88-1.62-7.8-2.56-3.28-4.44-4.12-4.01-1.25-6.4-1.25c-4.02,0-7.15,1.19-9.39,3.57s-3.36,5.58-3.36,9.59h-1.1v-6.09h1.28c.7-2.47,2.12-4.54,4.29-6.2,2.16-1.66,4.97-2.49,8.41-2.49,3.05,0,5.62.65,7.71,1.94,2.09,1.29,3.67,3.05,4.75,5.28,1.08,2.22,1.62,4.74,1.62,7.56s-.54,5.3-1.62,7.54c-1.08,2.24-2.69,4.01-4.81,5.3-2.13,1.29-4.77,1.94-7.94,1.94Z" fill="#FFFFFF" stroke="none" />
      </g>
    </g>
  </g>
</svg>